<svg xmlns="http://www.w3.org/2000/svg" width="1600" height="900" viewBox="0 0 1600 900" fill="none">
<defs>

<linearGradient id="bg" x1="0" y1="0" x2="0" y2="1"><stop offset="0" stop-color="#eef1f6"></stop><stop offset="1" stop-color="#dfe5ec"></stop></linearGradient>
<pattern id="grid" width="46" height="46" patternUnits="userSpaceOnUse"><circle cx="2" cy="2" r="1.5" fill="#8b949e" opacity="0.06"></circle></pattern>
<filter id="soft" x="-60%" y="-60%" width="220%" height="220%"><feGaussianBlur stdDeviation="95"></feGaussianBlur></filter>
<filter id="win" x="-30%" y="-30%" width="160%" height="160%"><feDropShadow dx="0" dy="30" stdDeviation="45" flood-color="#000" flood-opacity="0.55"></feDropShadow></filter>
</defs>



<g filter="url(#win)">
<rect x="240" y="170" width="1120" height="560" rx="18" fill="#1b2029" stroke="#2b333f" stroke-width="1.5"></rect>
<line x1="240" y1="226" x2="1360" y2="226" stroke="#242b36" stroke-width="1.5"></line>
<circle cx="286" cy="198" r="8" fill="#ec6a5e"></circle><circle cx="314" cy="198" r="8" fill="#f4bf50"></circle><circle cx="342" cy="198" r="8" fill="#61c554"></circle>
</g><rect x="356" y="296" width="936" height="340" rx="16" fill="#10151d" stroke="#242b36" stroke-width="1.5"></rect><rect x="328" y="278" width="936" height="30" rx="14" fill="#0f141b" stroke="#242b36" stroke-width="1.5"></rect><rect x="300" y="316" width="1000" height="352" rx="16" fill="#161c25" stroke="#a78bfa" stroke-opacity="0.5" stroke-width="1.5"></rect><rect x="332" y="350" width="120" height="36" rx="8" fill="#a78bfa" fill-opacity="0.16"></rect><text x="352" y="375" font-size="20" fill="#a78bfa">PROMPT</text><rect x="1176" y="350" width="92" height="36" rx="8" fill="#1c232d"></rect><text x="1198" y="375" font-size="20" fill="#e6edf3">v3</text><text x="332" y="446" font-size="26" fill="#c9d1d9">Refactor the following code for readability,</text><text x="332" y="486" font-size="26" fill="#c9d1d9">add explicit types, and explain each change</text><text x="332" y="526" font-size="26" fill="#c9d1d9">in a single short sentence.</text><rect x="646" y="504" width="13" height="28" fill="#a78bfa" opacity="0.9"></rect><rect x="332" y="584" width="123" height="34" rx="17" fill="#a78bfa" fill-opacity="0.14" stroke="#a78bfa" stroke-opacity="0.45"></rect><text x="349" y="607.3" font-size="18" fill="#a78bfa">refactor</text><rect x="467" y="584" width="146" height="34" rx="17" fill="#a78bfa" fill-opacity="0.14" stroke="#a78bfa" stroke-opacity="0.45"></rect><text x="484" y="607.3" font-size="18" fill="#a78bfa">typescript</text><rect x="625" y="584" width="112" height="34" rx="17" fill="#a78bfa" fill-opacity="0.14" stroke="#a78bfa" stroke-opacity="0.45"></rect><text x="642" y="607.3" font-size="18" fill="#a78bfa">concise</text></svg>