<svg xmlns="http://www.w3.org/2000/svg" width="1600" height="900" viewBox="0 0 1600 900" fill="none">
<defs>

<linearGradient id="bg" x1="0" y1="0" x2="0" y2="1"><stop offset="0" stop-color="#eef1f6"></stop><stop offset="1" stop-color="#dfe5ec"></stop></linearGradient>
<pattern id="grid" width="46" height="46" patternUnits="userSpaceOnUse"><circle cx="2" cy="2" r="1.5" fill="#8b949e" opacity="0.06"></circle></pattern>
<filter id="soft" x="-60%" y="-60%" width="220%" height="220%"><feGaussianBlur stdDeviation="95"></feGaussianBlur></filter>
<filter id="win" x="-30%" y="-30%" width="160%" height="160%"><feDropShadow dx="0" dy="30" stdDeviation="45" flood-color="#000" flood-opacity="0.55"></feDropShadow></filter>
</defs>



<g filter="url(#win)">
<rect x="240" y="170" width="1120" height="560" rx="18" fill="#1b2029" stroke="#2b333f" stroke-width="1.5"></rect>
<line x1="240" y1="226" x2="1360" y2="226" stroke="#242b36" stroke-width="1.5"></line>
<circle cx="286" cy="198" r="8" fill="#ec6a5e"></circle><circle cx="314" cy="198" r="8" fill="#f4bf50"></circle><circle cx="342" cy="198" r="8" fill="#61c554"></circle>
</g><rect x="300" y="286" width="1000" height="78" rx="14" fill="#0f141b" stroke="#2dd4bf" stroke-opacity="0.5" stroke-width="1.5"></rect><circle cx="346" cy="322" r="12" stroke="#8b949e" stroke-width="3" fill="none"></circle><line x1="356" y1="332" x2="366" y2="342" stroke="#8b949e" stroke-width="3"></line><text x="392" y="334" font-size="27" fill="#e6edf3">docker prune</text><rect x="596" y="312" width="13" height="28" fill="#2dd4bf" opacity="0.9"></rect><rect x="1204" y="304" width="64" height="42" rx="9" fill="#1c232d"></rect><text x="1220" y="332" font-size="22" fill="#2dd4bf">⌘K</text><rect x="300" y="392" width="1000" height="60" rx="11" fill="#2dd4bf" fill-opacity="0.14" stroke="#2dd4bf" stroke-opacity="0.4"></rect><rect x="320" y="406" width="32" height="32" rx="8" fill="#2dd4bf" fill-opacity="0.18"></rect><text x="329" y="429" font-size="20" fill="#2dd4bf">C</text><text x="372" y="430" font-size="24" fill="#c9d1d9">docker system prune -af --volumes</text><rect x="1173" y="408" width="107" height="28" rx="14" fill="#1c232d"></rect><text x="1188" y="427" font-size="17" fill="#8b949e">command</text><rect x="300" y="464" width="1000" height="60" rx="11" fill="#141a22" fill-opacity="0.6"></rect><rect x="320" y="478" width="32" height="32" rx="8" fill="#2dd4bf" fill-opacity="0.18"></rect><text x="329" y="501" font-size="20" fill="#2dd4bf">S</text><text x="372" y="502" font-size="24" fill="#c9d1d9">useDebounce.ts</text><rect x="1195" y="480" width="85" height="28" rx="14" fill="#1c232d"></rect><text x="1210" y="499" font-size="17" fill="#8b949e">react</text><rect x="300" y="536" width="1000" height="60" rx="11" fill="#141a22" fill-opacity="0.6"></rect><rect x="320" y="550" width="32" height="32" rx="8" fill="#2dd4bf" fill-opacity="0.18"></rect><text x="329" y="573" font-size="20" fill="#2dd4bf">P</text><text x="372" y="574" font-size="24" fill="#c9d1d9">Refactor prompt · v3</text><rect x="1184" y="552" width="96" height="28" rx="14" fill="#1c232d"></rect><text x="1199" y="571" font-size="17" fill="#8b949e">gpt-4o</text><rect x="300" y="608" width="1000" height="60" rx="11" fill="#141a22" fill-opacity="0.6"></rect><rect x="320" y="622" width="32" height="32" rx="8" fill="#2dd4bf" fill-opacity="0.18"></rect><text x="329" y="645" font-size="20" fill="#2dd4bf">N</text><text x="372" y="646" font-size="24" fill="#c9d1d9">Deploy runbook</text><rect x="1195" y="624" width="85" height="28" rx="14" fill="#1c232d"></rect><text x="1210" y="643" font-size="17" fill="#8b949e">notes</text></svg>