<svg xmlns="http://www.w3.org/2000/svg" width="1600" height="900" viewBox="0 0 1600 900" fill="none">
<defs>

<linearGradient id="bg" x1="0" y1="0" x2="0" y2="1"><stop offset="0" stop-color="#eef1f6"></stop><stop offset="1" stop-color="#dfe5ec"></stop></linearGradient>
<pattern id="grid" width="46" height="46" patternUnits="userSpaceOnUse"><circle cx="2" cy="2" r="1.5" fill="#8b949e" opacity="0.06"></circle></pattern>
<filter id="soft" x="-60%" y="-60%" width="220%" height="220%"><feGaussianBlur stdDeviation="95"></feGaussianBlur></filter>
<filter id="win" x="-30%" y="-30%" width="160%" height="160%"><feDropShadow dx="0" dy="30" stdDeviation="45" flood-color="#000" flood-opacity="0.55"></feDropShadow></filter>
</defs>



<g filter="url(#win)">
<rect x="240" y="170" width="1120" height="560" rx="18" fill="#1b2029" stroke="#2b333f" stroke-width="1.5"></rect>
<line x1="240" y1="226" x2="1360" y2="226" stroke="#242b36" stroke-width="1.5"></line>
<circle cx="286" cy="198" r="8" fill="#ec6a5e"></circle><circle cx="314" cy="198" r="8" fill="#f4bf50"></circle><circle cx="342" cy="198" r="8" fill="#61c554"></circle>
</g><path d="M680 349 C 720 349, 720 460, 760 460" stroke="#f472b6" stroke-opacity="0.4" stroke-width="2" stroke-dasharray="6 7" fill="none"></path><path d="M680 449 C 720 449, 720 460, 760 460" stroke="#f472b6" stroke-opacity="0.4" stroke-width="2" stroke-dasharray="6 7" fill="none"></path><path d="M680 549 C 720 549, 720 460, 760 460" stroke="#f472b6" stroke-opacity="0.4" stroke-width="2" stroke-dasharray="6 7" fill="none"></path><rect x="300" y="310" width="380" height="78" rx="13" fill="#161c25" stroke="#2c3540" stroke-width="1.5"></rect><rect x="322" y="328" width="42" height="42" rx="9" fill="#f472b6" fill-opacity="0.16"></rect><text x="334" y="356" font-size="18" fill="#f472b6">IMG</text><text x="384" y="357" font-size="23" fill="#c9d1d9">diagram.png</text><rect x="300" y="410" width="380" height="78" rx="13" fill="#161c25" stroke="#2c3540" stroke-width="1.5"></rect><rect x="322" y="428" width="42" height="42" rx="9" fill="#f472b6" fill-opacity="0.16"></rect><text x="334" y="456" font-size="18" fill="#f472b6">PDF</text><text x="384" y="457" font-size="23" fill="#c9d1d9">api-spec.pdf</text><rect x="300" y="510" width="380" height="78" rx="13" fill="#161c25" stroke="#2c3540" stroke-width="1.5"></rect><rect x="322" y="528" width="42" height="42" rx="9" fill="#f472b6" fill-opacity="0.16"></rect><text x="334" y="556" font-size="18" fill="#f472b6">MD</text><text x="384" y="557" font-size="23" fill="#c9d1d9">context.md</text><rect x="760" y="300" width="550" height="320" rx="14" fill="#161c25" stroke="#f472b6" stroke-opacity="0.45" stroke-width="1.5"></rect><text x="792" y="346" font-size="23" fill="#f472b6">deploy.ts</text><line x1="792" y1="364" x2="1278" y2="364" stroke="#242b36"></line><text x="792" y="410" font-size="22" fill="#8b949e">import spec from</text><text x="1030" y="410" font-size="22" fill="#c9d1d9">&#34;./api-spec&#34;</text><text x="792" y="450" font-size="22" fill="#c9d1d9">const cfg = load(spec);</text><text x="792" y="490" font-size="22" fill="#c9d1d9">render(diagram);</text><text x="792" y="556" font-size="22" fill="#636e7b">// files stay beside</text><text x="792" y="590" font-size="22" fill="#636e7b">// the code they serve</text></svg>