<svg xmlns="http://www.w3.org/2000/svg" width="1600" height="900" viewBox="0 0 1600 900" fill="none">
<defs>

<linearGradient id="bg" x1="0" y1="0" x2="0" y2="1"><stop offset="0" stop-color="#eef1f6"></stop><stop offset="1" stop-color="#dfe5ec"></stop></linearGradient>
<pattern id="grid" width="46" height="46" patternUnits="userSpaceOnUse"><circle cx="2" cy="2" r="1.5" fill="#8b949e" opacity="0.06"></circle></pattern>
<filter id="soft" x="-60%" y="-60%" width="220%" height="220%"><feGaussianBlur stdDeviation="95"></feGaussianBlur></filter>
<filter id="win" x="-30%" y="-30%" width="160%" height="160%"><feDropShadow dx="0" dy="30" stdDeviation="45" flood-color="#000" flood-opacity="0.55"></feDropShadow></filter>
</defs>



<g filter="url(#win)">
<rect x="240" y="170" width="1120" height="560" rx="18" fill="#1b2029" stroke="#2b333f" stroke-width="1.5"></rect>
<line x1="240" y1="226" x2="1360" y2="226" stroke="#242b36" stroke-width="1.5"></line>
<circle cx="286" cy="198" r="8" fill="#ec6a5e"></circle><circle cx="314" cy="198" r="8" fill="#f4bf50"></circle><circle cx="342" cy="198" r="8" fill="#61c554"></circle>
</g><path d="M510 400 C 560 470, 650 470, 760 470" stroke="#3fb950" stroke-opacity="0.5" stroke-width="2" stroke-dasharray="6 7" fill="none"></path><path d="M1090 400 C 1040 470, 950 470, 840 470" stroke="#3fb950" stroke-opacity="0.5" stroke-width="2" stroke-dasharray="6 7" fill="none"></path><rect x="360" y="300" width="74" height="22" rx="7" fill="#3fb950" fill-opacity="0.5"></rect><rect x="360" y="316" width="300" height="80" rx="12" fill="#161c25" stroke="#3fb950" stroke-opacity="0.45" stroke-width="1.5"></rect><text x="386" y="366" font-size="24" fill="#e6edf3">React Patterns</text><rect x="940" y="300" width="74" height="22" rx="7" fill="#3fb950" fill-opacity="0.5"></rect><rect x="940" y="316" width="300" height="80" rx="12" fill="#161c25" stroke="#3fb950" stroke-opacity="0.45" stroke-width="1.5"></rect><text x="966" y="366" font-size="24" fill="#e6edf3">Interview Prep</text><rect x="560" y="452" width="480" height="196" rx="14" fill="#161c25" stroke="#2c3540" stroke-width="1.5"></rect><text x="590" y="498" font-size="24" fill="#3fb950">useDebounce.ts</text><line x1="590" y1="516" x2="1010" y2="516" stroke="#242b36"></line><text x="590" y="556" font-size="22" fill="#8b949e">const [v, setV] = useState(x);</text><text x="590" y="592" font-size="22" fill="#8b949e">setTimeout(() =&gt; setV(x), 300)</text></svg>